<svg
  id="Layer_1"
  data-name="Layer 1"
  xmlns="http://www.w3.org/2000/svg"
  viewBox="0 0 149.81 198.83"
>
  <defs>
    <style>
      .cls-1 {
        fill: #cc2b3f;
        transform: scale(0.7, 0.7) translate(20%, 30%);
      }
    </style>
  </defs>
  <path
    class="cls-1"
    d="M129.67,67.18c-2-1.56-2.5-2.83-1.93-5.34a38.17,38.17,0,0,0-5.67-30.51c-1.57-2.38-1.11-3.6.74-5.34,4-3.76,7.81-7.73,11.69-11.62,4.09-4.11,4.63-8.13,1.5-11.2S128.33.54,124.26,4.69c-3.85,3.92-7.77,7.78-11.45,11.85-1.7,1.87-2.93,1.82-5,.57C93.37,8.56,78.82,8.57,64.38,17c-2.29,1.33-3.59,1.35-5.42-.66Q52.75,9.5,46.06,3.12a7.23,7.23,0,0,0-10.3.25c-2.61,2.78-2.48,6.69.52,9.77,4.17,4.3,8.35,8.6,12.73,12.69,2,1.9,2.44,3.19.75,5.75-5.95,9-8,19-5.61,29.55.8,3.46-.39,4.9-2.89,6.8-19.8,15.13-29.68,35.32-30.17,56,.07,34.44,19.51,62.56,47.84,73.3,10,3.79,10,3.78,12.22-6.45a14.22,14.22,0,0,0,.59-2.42c.13-2.87,1.59-3.85,4.24-3,4.4,1.34,8.94.56,13.38,1,3.46.33,7.59-3.07,9.89-.32,2.09,2.5,2.17,6.85,2.7,10.45s1.88,4,5.28,2.9c28.48-9.51,46.78-28.8,52.22-58.17C165.07,110.87,154.25,85.92,129.67,67.18ZM42.86,158.13a14.73,14.73,0,0,1-14-14.63,14.3,14.3,0,0,1,28.59.1C57.5,151.43,50.52,158.37,42.86,158.13Zm14.62-42.91A14.59,14.59,0,0,1,43.1,101,14.79,14.79,0,0,1,57.16,86.39c7.7-.2,14.68,6.73,14.66,14.56A14.64,14.64,0,0,1,57.48,115.22ZM86,172c-9.89,0-10.18-.31-8-9.79,2.45-10.75,5-21.48,7.48-32.22h1c2.5,10.72,5,21.44,7.49,32.18C96.11,171.56,95.74,172,86,172ZM99.23,54.37a44.69,44.69,0,0,0-12.56-1.06A63.55,63.55,0,0,0,62,57.21c-4.09,1.52-4.68,0-4.69-3.6,0-11.31,7.5-22.4,18.35-26.7a28.84,28.84,0,0,1,39,28c-.09,2.84-.87,3.72-3.9,2.57A74.12,74.12,0,0,0,99.23,54.37Zm.93,46.78c-.15-7.81,6.71-14.82,14.44-14.77a14.82,14.82,0,0,1,14.27,14.43,14.36,14.36,0,0,1-28.71.34Zm28.36,57a14.8,14.8,0,0,1-14-14.61,14.29,14.29,0,1,1,28.58.56C142.91,151.7,136,158.34,128.52,158.13Z"
  />
</svg>
