<svg
  id="Layer_1"
  data-name="Layer 1"
  xmlns="http://www.w3.org/2000/svg"
  viewBox="0 0 171.29 146.64"
>
  <defs>
    <style>
      .cls-1 {
        fill: #fe7b02;
        transform: scale(0.7, 0.7) translate(20%, 30%);
      }
    </style>
  </defs>
  <path
    class="cls-1"
    d="M53,111.9c.88-1.72,1.77-3.44,2.64-5.17C64.2,89.5,72.7,72.23,81.41,55.06c1.38-2.72,1.27-3.91-1.61-5.45a11.69,11.69,0,0,1-5.62-13.94,12.43,12.43,0,0,1,23.62.13c1.56,5.39-.67,10.81-5.73,14-1.4.88-3.68,1-2.21,3.86C99.6,73,109.19,92.42,118.8,111.75c1.48,0,1.75-1.13,2.26-1.9q15-22.69,29.87-45.41c1.07-1.63,1.84-2.73-.14-4.58a11.08,11.08,0,0,1-2.25-14c2.64-4.81,8.4-7.54,13.35-6.33a12.66,12.66,0,0,1,9.72,11.16c.38,5.41-2.79,11-8,12.27-3.94,1-4.19,3-4.18,6.27.11,33.39,0,66.78.15,100.17,0,3.62-1,4.44-4.5,4.43q-69.15-.17-138.3,0c-3.67,0-4.37-1.13-4.36-4.57.13-33.67,0-67.35.13-101,0-2.73-.36-4.26-3.47-5.07C3.31,61.67.14,56.77.37,51A12.31,12.31,0,0,1,9.78,39.61c5-1.34,10.69,1.18,13.48,6s2,10.09-2.17,14.42c-1.1,1.12-1.82,1.81-.71,3.48,10.57,15.93,21,31.92,31.55,47.88C52.06,111.57,52.4,111.62,53,111.9Z"
    transform="translate(-0.36 -27.18)"
  />
</svg>
