<svg
  id="Layer_1"
  data-name="Layer 1"
  xmlns="http://www.w3.org/2000/svg"
  viewBox="0 0 171.35 186.02"
>
  <defs>
    <style>
      .cls-1 {
        fill: #783d93;
        transform: scale(0.7, 0.7) translate(20%, 30%);
      }
    </style>
  </defs>
  <path
    class="cls-1"
    d="M171.74,26c0-3.08-1.3-3.55-3.89-3.48-5.16.15-10.33,0-15.49,0-9.23,0-9.45,0-9.16-9,.13-4.11-.95-5.29-5.16-5.27-32.47.18-64.95.08-97.42.13C37,8.48,32.5,7,30,9.15s-.83,6.59-.76,10c.06,3.12-1.35,3.52-3.92,3.47-6.32-.12-12.67.21-19-.12C2,22.28.2,23.23.42,28.1c.44,9.47.12,19,.13,28.47,0,18.15,9.52,30.9,27.09,36.07,2.6.76,3.71,2.16,4.45,4.59A53.67,53.67,0,0,0,43,116.7,56.66,56.66,0,0,0,79.8,136.55c-.32.4-.4.6-.53.65-1.26.41-2.53.76-3.79,1.18-10.7,3.6-18.86,10.27-22.25,21.16-1.59,5.1-3.94,6.06-8.7,5.91-9.31-.29-15.24,5.85-15.39,15.15-.05,3,.22,6-.07,9-.35,3.63,1.16,4.42,4.53,4.39,18.15-.15,36.31-.07,54.46-.07,16.82,0,33.64-.12,50.45.09,3.82.05,5-1.1,4.66-4.8-.32-3.3.05-6.66-.11-10-.31-6.78-5.31-13.77-11.74-13.37-8.78.54-11.27-3.81-14.34-10.72-4.66-10.5-14.21-15.83-26.11-18.23C116,133,132.51,119.66,140.43,96.21c.88-2.61,2.67-3.06,4.72-3.65,15.61-4.51,26-17.16,26.46-33.06C172,48.35,171.58,37.19,171.74,26ZM29.15,78.51c-8.57-3.58-13.45-9.36-14.29-17.74-.71-7.08-.33-14.28-.42-21.42,0-.33-.11-.79.06-1,3.53-3.66,8-1,12-1.72,2.28-.43,2.7,1.13,2.69,3.06C29.13,52.35,29.15,65,29.15,78.51ZM105.8,165H66.44a20,20,0,0,1,19.42-13.77C95.3,151.19,102.61,156.14,105.8,165ZM157.57,59.53c-.62,8.88-5.45,15-14.49,19.1V39.48c0-.33-.11-.78,0-1,3.4-4,7.93-1,11.86-1.84,2.17-.48,2.86.88,2.83,2.93C157.71,46.24,158,52.91,157.57,59.53Z"
    transform="translate(-0.4 -7.98)"
  />
</svg>
