<svg
  id="Layer_1"
  data-name="Layer 1"
  xmlns="http://www.w3.org/2000/svg"
  viewBox="0 0 171.66 159.37"
>
  <defs>
    <style>
      .cls-1 {
        fill: #b4049f;
        transform: scale(0.7, 0.7) translate(20%, 30%);
      }
    </style>
  </defs>
  <path
    class="cls-1"
    d="M58.27,69.41q3.85-12,7.7-24c2.26-7.07,4.68-14.1,6.71-21.23.79-2.77,2.12-3.48,4.82-3.39,5.56.2,11.14.22,16.71,0,2.85-.12,4.19.62,5.13,3.55q21.89,68.33,44,136.55a20,20,0,0,1,.9,2.85c.5,3,2,4.14,5.23,4,6.42-.29,12.86,0,19.28-.13,2.27,0,2.86.74,2.94,3,.35,9.5.43,9.5-9.23,9.5-52.29,0-104.58-.06-156.87.09-4.21,0-5.69-.82-5.42-5.31.43-7.17.12-7.18,7.27-7.18,5,0,10-.24,15,.08,3.25.21,4.39-1.1,5.26-4,3-9.7,6.32-19.27,9.22-29,.92-3,2.38-3.85,5.42-3.83,17.14.15,34.29,0,51.43.15,3.45,0,4.72-.72,4.61-4.43-.24-8,0-8-8.19-8-14.72,0-29.43-.12-44.15.08-3.68.06-3.86-.94-2.81-4q5-14.6,9.47-29.35c.87-2.89,2.26-3.66,5.16-3.59,8.28.21,16.57,0,24.86.14,2.64.05,3.36-.75,3.38-3.38,0-8.79.16-8.78-8.59-8.79q-9,0-18,0A7.56,7.56,0,0,1,58.27,69.41Z"
    transform="translate(-0.17 -20.82)"
  />
</svg>
