<svg
  id="Layer_1"
  data-name="Layer 1"
  xmlns="http://www.w3.org/2000/svg"
  viewBox="0 0 142.85 199.78"
>
  <defs>
    <style>
      .cls-1 {
        fill: #35964e;
        transform: scale(0.7, 0.7) translate(20%, 30%);
      }
    </style>
  </defs>
  <path
    class="cls-1"
    d="M157.43,33.39c0-4-1.36-4.63-4.88-4.57-11.31.21-22.63,0-33.94.16-3.18.05-4.14-.92-4.56-4.05a28.36,28.36,0,0,0-56.13,0C57.52,28,56.63,29,53.4,29c-11.31-.21-22.63.11-33.94-.18-4.08-.11-4.91,1.28-4.89,5.06.15,26.79.08,53.59.08,80.38,0,27.13.07,54.26-.07,81.38,0,3.71,1,4.78,4.76,4.77q66.65-.18,133.27,0c3.71,0,4.81-1,4.8-4.74Q157.25,114.52,157.43,33.39ZM85.92,185.75c-11,0-11,0-11-11.05,0-10.75,0-10.75,10.94-10.75h.49c10.8,0,10.8,0,10.8,10.9S97.11,185.75,85.92,185.75Zm7.65-37a148.89,148.89,0,0,0-14.94,0c-3.27.18-3.83-1.15-3.8-4,.11-8.35.09-16.7.07-25q0-4.19,0-8.35t0-8.48c0-8.48,0-17-.07-25.43,0-2.74.65-3.84,3.58-3.72,5.14.22,10.31.2,15.45,0,2.75-.1,3.29,1,3.28,3.5q-.11,33.9,0,67.81C97.16,147.7,96.51,148.84,93.57,148.72Zm24.85-91H85.48c-12.81,0-25.62-.09-38.43.06-3,0-4-.74-4-3.88-.1-10.87-.23-10.87,10.48-10.87,4.66,0,9.33-.17,14,.06,3.16.15,4.57-.69,4.3-4.12a81.44,81.44,0,0,1,0-10.48,14.19,14.19,0,0,1,28.37,0,58.7,58.7,0,0,1,0,9.47c-.5,4.36,1.33,5.33,5.33,5.14,6.47-.32,13,.05,19.46-.15,3.07-.1,3.93.91,4,4C129.05,57.75,129.17,57.75,118.42,57.75Z"
    transform="translate(-14.57 -0.61)"
  />
</svg>
