<svg
  id="Layer_1"
  data-name="Layer 1"
  xmlns="http://www.w3.org/2000/svg"
  viewBox="0 0 171.58 200.03"
>
  <defs>
    <style>
      .cls-1 {
        fill: #029ccc;
        transform: scale(0.7, 0.7) translate(20%, 30%);
      }
    </style>
  </defs>
  <path
    class="cls-1"
    d="M171.76,5.83c0-3.77-.78-5.1-4.89-5.09Q86,1,5.08.74C.92.73.2,2.12.22,5.86c.13,31.46.07,62.91.07,94.37,0,31.63.08,63.25-.09,94.87,0,4.21.79,5.68,5.4,5.67q80.4-.27,160.8,0c4,0,5.39-.85,5.38-5.16Q171.57,100.71,171.76,5.83ZM39.52,43.29c23.44,0,46.89.08,70.34-.09,3.73,0,4.84,1,4.8,4.75-.12,10,.06,10-9.77,10H71.47L52.26,58c-6.4,0-12.8,0-19.21.1-3.2,0-4.24-.8-4.24-4.14C28.81,43.29,28.66,43.29,39.52,43.29Zm75.12,90.77c-.28,9.17,0,9.17-9.2,9.17H72c-9.73,0-19.45,0-29.18,0-3.24,0-6.48,0-9.72.08s-4.29-.73-4.29-4.11C28.84,129,28.68,129,39,129c23.44,0,46.88.09,70.32-.09C113.25,128.92,114.77,129.73,114.64,134.06Zm0-43c-.29,9.68,0,9.68-9.76,9.68H71.49l-19.21,0q-9.6,0-19.21.09c-3.2,0-4.26-.82-4.26-4.18,0-10.6-.15-10.6,10.19-10.6,23.45,0,46.89.1,70.34-.09C113.35,85.94,114.8,86.78,114.67,91.09Zm21,52.13c-6.82.07-6.82,0-6.81-7.9,0-6.29,0-6.35,8.4-6.26,6.73.07,5.71-1.14,5.81,7.36C142.89,144.31,144.3,143.14,135.65,143.22Zm7.42-49.62c0,7.18,0,7.18-7.59,7.17-6.66,0-6.66,0-6.66-8.1,0-6.61,0-6.68,8.09-6.59C144.08,86.16,143,84.89,143.07,93.6ZM134.63,58c-6.73-.06-5.7,1.11-5.81-7.37.14-8.49-1.18-7.23,7.44-7.31,6.82-.06,6.82,0,6.81,8.44C143.07,58,143.07,58.07,134.63,58Z"
    transform="translate(-0.2 -0.74)"
  />
</svg>
