<svg
  id="Layer_1"
  data-name="Layer 1"
  xmlns="http://www.w3.org/2000/svg"
  viewBox="0 0 142.86 199.75"
>
  <defs>
    <style>
      .cls-1 {
        fill: #da562d;
        transform: scale(0.7, 0.7) translate(20%, 30%);
      }
    </style>
  </defs>
  <path
    class="cls-1"
    d="M157.43,33c0-3.41-1.16-4.17-4.3-4.13-11.65.16-23.31,0-35,.13-2.74,0-3.62-.81-4-3.52C112,10.55,100.42.55,85.77.62,71.47.69,60,10.83,57.89,25.45c-.39,2.72-1.28,3.55-4,3.52-11.15-.15-22.31.14-33.46-.17-4.45-.12-5.89.94-5.85,5.66.24,26.64.12,53.28.12,79.92,0,27,0,53.94,0,80.91,0,3.3.3,5.1,4.46,5.09q66.91-.23,133.85,0c3.55,0,4.47-1.14,4.47-4.56Q157.29,114.39,157.43,33ZM87.13,185.75h-1c-11.23,0-11.23,0-11.23-11.36,0-10.45,0-10.45,10.25-10.45,12,0,12,0,12,11.7C97.14,185.75,97.14,185.75,87.13,185.75Zm5.31-37c-4.63-.3-9.3-.16-14,0-2.35.06-3.63-.32-3.62-3.18q.15-34.38,0-68.77c0-2.48,1-3.1,3.23-3,5.15.12,10.3.19,15.44,0,2.88-.11,3.66.9,3.63,3.69s-.05,5.64-.07,8.47c0,8.47,0,16.94,0,25.41,0,8.22-.1,16.45,0,24.67q0,4.11.13,8.22C97.32,148,96.07,149,92.44,148.73Zm31.65-90.87c-6.4-.14-12.8-.17-19.21-.16s-12.81.06-19.21.06-12.81,0-19.22,0-12.81,0-19.21.11c-3.35.05-4.15-1-4.16-4.24,0-10.53-.13-10.53,10.33-10.53,5,0,10-.1,15,0,2.6.08,3.57-.85,3.44-3.45-.16-3.49-.12-7,0-10.48.27-8.35,6.16-14.32,14.08-14.38,8.16-.06,14.08,5.95,14.36,14.59,0,.34,0,.67,0,1,.38,4.09-1.87,9.67,1,11.89,2.65,2,8,.71,12.1.78,3.82.06,7.67.22,11.47,0,3.43-.24,4.44,1.15,4.09,4.32a23.91,23.91,0,0,0,0,5.48C129.4,56.6,128.2,58,124.09,57.86Z"
    transform="translate(-14.57 -0.62)"
  />
</svg>
