<svg
  id="Layer_1"
  data-name="Layer 1"
  xmlns="http://www.w3.org/2000/svg"
  viewBox="0 0 143.69 200.5"
>
  <defs>
    <style>
      .cls-1 {
        fill: #f1cb1f;
        transform: scale(0.7, 0.7) translate(20%, 20%);
      }
    </style>
  </defs>
  <path
    class="cls-1"
    d="M157.74,115.11c0-27-.07-53.94.08-80.91,0-3.76-.73-5.21-4.87-5.09-11.15.31-22.31,0-33.46.16-3.08.05-4.49-.36-5.08-4A29.17,29.17,0,0,0,86.09.5C72.2.37,59.89,11,57.48,25.56c-.5,3-1.39,3.76-4.29,3.72-11.32-.16-22.64.07-34-.15-3.76-.07-5.1.75-5.09,4.87q.22,81.16,0,162.33c0,3.83,1.15,4.68,4.81,4.67q66.93-.18,133.86,0c3.92,0,5-1,5-5C157.65,169.06,157.74,142.08,157.74,115.11ZM52.82,43.88c5,0,10-.15,15,.06,3.31.14,4.4-1.1,4.17-4.34a87.08,87.08,0,0,1,0-10.47,14.05,14.05,0,0,1,28.1.06c.16,3.65.18,7.32,0,11-.15,2.83.92,3.82,3.72,3.77,7-.12,14,.09,20.93-.09,3-.08,4,.91,4,4C128.91,58,129,58,118.61,58H85.71c-12.63,0-25.26-.1-37.88.07-3.35,0-4.62-.72-4.59-4.35C43.33,43.89,43.15,43.88,52.82,43.88ZM128.88,111C109.74,130.2,90.5,149.3,71.45,168.58c-2.63,2.66-4,2.72-6.64,0-9.59-9.92-19.39-19.65-29.26-29.3-2.25-2.19-2.7-3.59-.11-5.82,3.14-2.7,5.92-5.83,8.88-8.75.69-.68,1.5-1.24,2.41-2,1,.84,1.9,1.52,2.71,2.32,5,4.92,10.08,9.7,14.76,14.87,2.84,3.14,4.53,3.45,7.74.16,16.39-16.77,33.15-33.18,49.59-49.9,2.87-2.92,4.57-3.35,7.3,0,3.06,3.7,9.19,6.94,9.25,10.45S132.27,107.61,128.88,111Z"
    transform="translate(-14.14 -0.5)"
  />
</svg>
